<svg width="100" height="100" viewBox="0 0 100 100" fill="none" xmlns="http://www.w3.org/2000/svg">
<path d="M50.0002 91.6667C26.9877 91.6667 8.3335 73.0125 8.3335 50C8.3335 26.9875 26.9877 8.33331 50.0002 8.33331C73.0127 8.33331 91.6668 26.9875 91.6668 50C91.6668 73.0125 73.0127 91.6667 50.0002 91.6667ZM50.0002 83.3333C58.8407 83.3333 67.3192 79.8214 73.5704 73.5702C79.8216 67.319 83.3335 58.8405 83.3335 50C83.3335 41.1594 79.8216 32.681 73.5704 26.4298C67.3192 20.1785 58.8407 16.6666 50.0002 16.6666C41.1596 16.6666 32.6812 20.1785 26.4299 26.4298C20.1787 32.681 16.6668 41.1594 16.6668 50C16.6668 58.8405 20.1787 67.319 26.4299 73.5702C32.6812 79.8214 41.1596 83.3333 50.0002 83.3333ZM50.0002 29.1666C51.1052 29.1666 52.165 29.6056 52.9464 30.387C53.7278 31.1684 54.1668 32.2282 54.1668 33.3333V54.1666C54.1668 55.2717 53.7278 56.3315 52.9464 57.1129C52.165 57.8943 51.1052 58.3333 50.0002 58.3333C48.8951 58.3333 47.8353 57.8943 47.0539 57.1129C46.2725 56.3315 45.8335 55.2717 45.8335 54.1666V33.3333C45.8335 32.2282 46.2725 31.1684 47.0539 30.387C47.8353 29.6056 48.8951 29.1666 50.0002 29.1666ZM50.0002 70.8333C48.8951 70.8333 47.8353 70.3943 47.0539 69.6129C46.2725 68.8315 45.8335 67.7717 45.8335 66.6667C45.8335 65.5616 46.2725 64.5018 47.0539 63.7204C47.8353 62.939 48.8951 62.5 50.0002 62.5C51.1052 62.5 52.165 62.939 52.9464 63.7204C53.7278 64.5018 54.1668 65.5616 54.1668 66.6667C54.1668 67.7717 53.7278 68.8315 52.9464 69.6129C52.165 70.3943 51.1052 70.8333 50.0002 70.8333Z" fill="#FF9A62"/>
</svg>
