<svg width="35" height="35" viewBox="0 0 35 35" fill="none" xmlns="http://www.w3.org/2000/svg">
<path d="M17.2521 13.125L21.875 17.7333V17.5C21.875 16.3397 21.414 15.2269 20.5936 14.4064C19.7731 13.5859 18.6603 13.125 17.5 13.125H17.2521ZM10.9812 14.2917L13.2416 16.5521C13.1687 16.8583 13.125 17.1646 13.125 17.5C13.125 18.6603 13.5859 19.7731 14.4064 20.5936C15.2269 21.4141 16.3397 21.875 17.5 21.875C17.8208 21.875 18.1416 21.8313 18.4479 21.7583L20.7083 24.0187C19.7312 24.5 18.6521 24.7917 17.5 24.7917C15.5661 24.7917 13.7114 24.0234 12.344 22.656C10.9765 21.2885 10.2083 19.4339 10.2083 17.5C10.2083 16.3479 10.5 15.2688 10.9812 14.2917ZM2.91665 6.22708L6.24165 9.55208L6.8979 10.2083C4.49165 12.1042 2.59581 14.5833 1.45831 17.5C3.98123 23.9021 10.2083 28.4375 17.5 28.4375C19.7604 28.4375 21.9187 28 23.8875 27.2125L24.5146 27.825L28.7729 32.0833L30.625 30.2313L4.76873 4.375M17.5 10.2083C19.4338 10.2083 21.2885 10.9766 22.656 12.344C24.0234 13.7115 24.7916 15.5661 24.7916 17.5C24.7916 18.4333 24.6021 19.3375 24.2666 20.1542L28.5396 24.4271C30.7271 22.6042 32.4771 20.2125 33.5416 17.5C31.0187 11.0979 24.7916 6.5625 17.5 6.5625C15.4583 6.5625 13.5041 6.92708 11.6666 7.58333L14.8312 10.7188C15.6625 10.3979 16.5521 10.2083 17.5 10.2083Z" fill="black"/>
</svg>
