<svg width="50" height="48" viewBox="0 0 50 48" fill="none" xmlns="http://www.w3.org/2000/svg">
<path d="M16.6667 37.5H19.7917V33.3333H23.9583V30.2083H19.7917V26.0417H16.6667V30.2083H12.5V33.3333H16.6667V37.5ZM27.0833 35.9375H37.5V32.8125H27.0833V35.9375ZM27.0833 30.7292H37.5V27.6042H27.0833V30.7292ZM29.375 22.8125L32.2917 19.8958L35.2083 22.8125L37.3958 20.625L34.4792 17.6042L37.3958 14.6875L35.2083 12.5L32.2917 15.4167L29.375 12.5L27.1875 14.6875L30.1042 17.6042L27.1875 20.625L29.375 22.8125ZM13.0208 19.1667H23.4375V16.0417H13.0208V19.1667ZM10.4167 43.75C9.27084 43.75 8.28959 43.3424 7.47292 42.5271C6.65625 41.7118 6.24861 40.7306 6.25 39.5833V10.4167C6.25 9.27083 6.65834 8.29028 7.475 7.475C8.29167 6.65972 9.27223 6.25139 10.4167 6.25H39.5833C40.7292 6.25 41.7104 6.65833 42.5271 7.475C43.3438 8.29167 43.7514 9.27222 43.75 10.4167V39.5833C43.75 40.7292 43.3424 41.7104 42.5271 42.5271C41.7118 43.3438 40.7306 43.7514 39.5833 43.75H10.4167ZM10.4167 39.5833H39.5833V10.4167H10.4167V39.5833Z" fill="white"/>
</svg>
