<svg width="50" height="50" viewBox="0 0 50 50" fill="none" xmlns="http://www.w3.org/2000/svg">
<path d="M25.0002 8.33337C27.2103 8.33337 29.3299 9.21135 30.8927 10.7742C32.4555 12.337 33.3335 14.4566 33.3335 16.6667C33.3335 18.8768 32.4555 20.9965 30.8927 22.5593C29.3299 24.1221 27.2103 25 25.0002 25C22.79 25 20.6704 24.1221 19.1076 22.5593C17.5448 20.9965 16.6668 18.8768 16.6668 16.6667C16.6668 14.4566 17.5448 12.337 19.1076 10.7742C20.6704 9.21135 22.79 8.33337 25.0002 8.33337ZM25.0002 29.1667C34.2085 29.1667 41.6668 32.8959 41.6668 37.5V41.6667H8.3335V37.5C8.3335 32.8959 15.7918 29.1667 25.0002 29.1667Z" fill="#00DD9B"/>
</svg>
